#tb 0: 1/25
0,          9,          9,        1,   622080, 0x1511cae9
0,         10,         10,        1,   622080, 0x6e77e746
0,         11,         11,        1,   622080, 0x89aac777
0,         12,         12,        1,   622080, 0x7e0a9335
0,         13,         13,        1,   622080, 0x5f34759b
0,         14,         14,        1,   622080, 0xfac498a6
0,         15,         15,        1,   622080, 0xe60e7a9e
0,         16,         16,        1,   622080, 0x44875bbd
0,         17,         17,        1,   622080, 0xfa761aab
0,         18,         18,        1,   622080, 0x59be119c
0,         19,         19,        1,   622080, 0x21316b36
0,         20,         20,        1,   622080, 0x929fde5b
0,         21,         21,        1,   622080, 0xfca8990c
0,         22,         22,        1,   622080, 0x1ec87d02
0,         23,         23,        1,   622080, 0x5768eea0
0,         24,         24,        1,   622080, 0x1a0894ab
0,         25,         25,        1,   622080, 0xb4e61323
0,         26,         26,        1,   622080, 0xb773341a
0,         27,         27,        1,   622080, 0x8a914cf7
0,         28,         28,        1,   622080, 0xf1cfbc7d
0,         29,         29,        1,   622080, 0xebaeb317
0,         30,         30,        1,   622080, 0xbae9adf4
0,         31,         31,        1,   622080, 0x593544fd
0,         32,         32,        1,   622080, 0x2cd8ec0b
0,         33,         33,        1,   622080, 0x8032d9d4
0,         34,         34,        1,   622080, 0x5c67ace7
0,         35,         35,        1,   622080, 0x95714528
0,         36,         36,        1,   622080, 0xa11cbed2
0,         37,         37,        1,   622080, 0x7389f8f1
0,         38,         38,        1,   622080, 0xa694f3f2
0,         39,         39,        1,   622080, 0xac3a3d09
